<?xml version="1.0" standalone="no"?>
<!DOCTYPE svg PUBLIC "-//W3C//DTD SVG 20010904//EN"
 "http://www.w3.org/TR/2001/REC-SVG-20010904/DTD/svg10.dtd">
<svg version="1.0" xmlns="http://www.w3.org/2000/svg"
 width="167.000000pt" height="167.000000pt" viewBox="0 0 167.000000 167.000000"
 preserveAspectRatio="xMidYMid meet">
<metadata>
Created by potrace 1.11, written by Peter Selinger 2001-2013
</metadata>
<g transform="translate(0.000000,167.000000) scale(0.100000,-0.100000)"
fill="#000000" stroke="none">
<path d="M544 1170 c-5 -5 -27 -11 -49 -13 -25 -3 -124 -46 -264 -116 -208
-104 -222 -114 -215 -134 11 -32 17 -347 6 -347 -5 0 -9 -15 -8 -32 l1 -33
213 0 c138 0 212 3 212 10 0 6 -70 9 -205 7 -201 -3 -205 -2 -205 18 0 14 7
20 23 21 16 0 18 2 7 7 -12 6 -15 35 -15 175 l0 167 203 0 203 0 25 -27 c13
-16 22 -21 18 -11 -4 13 0 16 16 15 21 -1 21 -4 18 -164 l-3 -163 25 1 c17 0
20 3 10 7 -12 6 -15 34 -15 162 0 119 3 154 13 153 6 -2 12 1 12 6 0 5 -21 9
-46 9 -26 1 -49 4 -52 7 -3 3 160 5 362 5 202 0 365 -3 363 -7 -3 -5 -141 -8
-306 -7 -166 1 -303 -2 -306 -5 -2 -4 17 -6 43 -6 83 2 82 4 80 -155 -1 -77
-5 -140 -9 -140 -4 0 -9 -7 -13 -15 -4 -12 6 -15 57 -15 56 1 60 2 36 13 -25
12 -25 12 -27 154 -1 102 2 145 11 150 22 14 146 10 152 -5 3 -8 12 -11 20 -8
10 4 15 -1 15 -14 0 -11 4 -20 10 -20 5 0 7 6 5 13 -11 28 13 39 89 42 63 2
76 0 76 -13 0 -13 3 -12 14 4 30 40 38 4 34 -170 -2 -106 1 -166 7 -166 6 0 9
60 7 166 -3 146 -1 168 14 185 16 18 33 19 223 19 113 0 202 -4 196 -8 -16
-11 -13 -342 3 -342 6 0 12 -9 12 -21 0 -21 -2 -21 -232 -18 -128 2 -217 2
-198 0 l35 -4 -30 -7 c-16 -3 76 -6 205 -5 l235 1 0 29 c0 17 -4 33 -9 37 -6
4 -10 73 -10 162 0 132 2 158 17 174 9 10 17 21 17 24 0 3 -105 58 -234 121
-165 82 -242 115 -262 113 -16 -1 -37 4 -47 12 -9 9 -20 12 -24 9 -3 -4 -1 -7
5 -7 7 0 12 -9 12 -19 0 -14 -5 -18 -20 -14 -11 3 -20 9 -20 13 0 4 -110 7
-245 7 -135 0 -245 -4 -245 -9 0 -4 -10 -8 -21 -8 -16 0 -20 5 -16 20 6 23 5
24 -9 10z m286 -128 c0 -12 -3 -12 -15 -2 -8 7 -15 13 -15 15 0 1 7 2 15 2 8
0 15 -7 15 -15z m30 9 c0 -6 -4 -13 -10 -16 -5 -3 -10 1 -10 9 0 9 5 16 10 16
6 0 10 -4 10 -9z m-337 -26 c-3 -8 -9 -15 -14 -15 -10 0 -12 24 -3 33 11 11
24 -3 17 -18z m279 -17 c-9 -9 -12 -7 -12 12 0 19 3 21 12 12 9 -9 9 -15 0
-24z m83 4 c-8 -8 -25 10 -19 20 4 6 9 5 15 -3 4 -7 6 -15 4 -17z m289 13 c-4
-8 -10 -15 -15 -15 -5 0 -9 7 -9 15 0 8 7 15 15 15 9 0 12 -6 9 -15z m-648
-70 c0 -14 -4 -25 -9 -25 -4 0 -5 -6 -1 -12 6 -9 3 -9 -9 0 -17 15 -18 29 -2
49 15 19 21 16 21 -12z m114 15 c-13 -8 -12 -10 3 -10 9 0 17 5 17 10 0 6 8
10 18 10 15 0 15 -2 2 -11 -12 -9 -11 -10 8 -6 27 6 29 -12 3 -35 -17 -14 -20
-14 -25 -2 -5 13 -10 12 -33 -3 -27 -17 -28 -17 -13 2 14 17 13 18 -5 11 -11
-5 -26 -8 -32 -7 -38 3 -43 5 -43 14 0 19 36 36 75 37 29 0 36 -3 25 -10z
m158 -2 c9 -9 12 -9 12 0 0 7 12 12 28 11 24 0 25 -1 7 -9 -19 -8 -19 -9 3 -9
12 -1 22 5 23 12 0 10 2 10 6 0 2 -7 9 -13 14 -13 6 0 7 6 3 13 -5 8 -2 8 9
-2 9 -7 17 -20 17 -29 0 -8 -3 -13 -6 -9 -4 3 -21 -1 -38 -10 -30 -15 -30 -15
-16 2 14 17 13 18 -5 11 -11 -5 -33 -8 -48 -7 -20 1 -27 -2 -22 -11 4 -7 0 -5
-8 4 -8 10 -17 15 -20 11 -4 -3 -7 1 -7 10 0 11 8 17 23 17 18 0 19 2 7 10 -8
5 -10 10 -4 10 5 0 15 -5 22 -12z m159 6 c-3 -3 -12 -4 -19 -1 -8 3 -5 6 6 6
11 1 17 -2 13 -5z m68 -4 c-19 -8 -19 -9 3 -9 12 -1 22 4 22 9 0 6 12 10 28 9
24 0 25 -1 7 -9 -19 -8 -19 -9 3 -9 12 -1 22 5 22 12 0 7 4 6 10 -4 6 -11 18
-15 35 -11 28 5 31 -4 10 -32 -15 -19 -15 -19 -15 3 0 17 -3 21 -12 14 -7 -6
-31 -10 -53 -9 -22 1 -50 -5 -62 -12 -19 -11 -23 -11 -31 5 -6 10 -14 17 -19
15 -4 -2 -9 1 -11 7 -2 6 7 11 20 11 16 0 19 3 10 9 -9 5 -2 8 20 8 27 1 29
-1 13 -7z m-285 -31 c0 -11 -4 -17 -10 -14 -5 3 -10 13 -10 21 0 8 5 14 10 14
6 0 10 -9 10 -21z m210 2 c0 -29 -15 -33 -16 -5 -1 13 2 24 7 24 5 0 9 -9 9
-19z m-210 -226 c0 -90 -4 -145 -10 -145 -6 0 -10 55 -10 145 0 90 4 145 10
145 6 0 10 -55 10 -145z"/>
<path d="M583 963 c9 -2 23 -2 30 0 6 3 -1 5 -18 5 -16 0 -22 -2 -12 -5z"/>
<path d="M110 880 c-9 -6 -10 -10 -3 -10 6 0 15 5 18 10 8 12 4 12 -15 0z"/>
<path d="M150 879 c0 -5 5 -7 10 -4 6 3 10 8 10 11 0 2 -4 4 -10 4 -5 0 -10
-5 -10 -11z"/>
<path d="M270 880 c-9 -6 -10 -10 -3 -10 6 0 15 5 18 10 8 12 4 12 -15 0z"/>
<path d="M430 880 c-9 -6 -10 -10 -3 -10 6 0 15 5 18 10 8 12 4 12 -15 0z"/>
<path d="M1310 880 c-9 -6 -10 -10 -3 -10 6 0 15 5 18 10 8 12 4 12 -15 0z"/>
<path d="M1508 883 c6 -2 18 -2 25 0 6 3 1 5 -13 5 -14 0 -19 -2 -12 -5z"/>
<path d="M576 839 c-14 -11 -26 -27 -26 -35 0 -22 28 -29 48 -12 28 24 47 16
52 -22 4 -24 7 -30 12 -18 4 9 4 25 2 36 -4 12 0 22 11 26 13 5 15 2 10 -14
-4 -11 -2 -20 4 -20 16 0 13 31 -5 51 -9 10 -23 15 -32 12 -8 -4 -13 -2 -9 3
11 19 -41 13 -67 -7z m62 -2 c6 -5 16 -6 21 -2 5 3 13 0 17 -6 4 -7 3 -9 -4
-5 -5 3 -13 0 -16 -6 -3 -10 -8 -9 -18 3 -12 14 -15 14 -33 -7 -23 -28 -31
-29 -38 -10 -3 8 2 20 11 28 13 11 15 11 9 -2 -5 -10 -4 -10 4 1 13 17 25 19
47 6z"/>
<path d="M790 843 c-19 -14 -21 -18 -8 -27 8 -6 15 -28 15 -48 1 -41 -13 -52
-20 -15 -2 12 -5 -15 -6 -60 0 -45 3 -84 8 -87 4 -3 7 22 5 54 -3 58 -2 60 21
60 20 0 25 5 25 26 0 19 -4 25 -15 20 -19 -7 -19 5 1 30 13 16 15 16 10 2 -3
-10 -1 -18 4 -18 6 0 10 7 10 15 0 8 4 15 10 15 11 0 9 -28 -3 -47 -5 -7 -1
-9 12 -6 14 4 18 11 15 29 -2 13 0 24 6 24 5 0 10 -8 10 -17 1 -17 2 -16 11 1
9 14 7 22 -10 39 -17 18 -23 19 -33 8 -11 -11 -10 -13 4 -8 11 4 15 2 12 -6
-4 -11 -64 -13 -64 -2 0 3 0 10 0 16 0 8 4 8 14 0 10 -9 15 -8 19 2 7 19 -26
19 -53 0z m27 -105 c-3 -8 -6 -5 -6 6 -1 11 2 17 5 13 3 -3 4 -12 1 -19z"/>
<path d="M997 839 c-18 -14 -20 -20 -9 -30 9 -10 12 -10 12 0 0 7 4 10 9 7 13
-8 2 -44 -16 -50 -10 -4 -13 -2 -10 8 6 14 -10 36 -25 36 -5 0 -8 -15 -6 -34
1 -19 6 -32 10 -30 4 3 8 -27 8 -65 0 -45 4 -71 11 -71 7 0 9 10 5 25 -5 20
-3 23 10 18 10 -4 14 -14 11 -29 -2 -13 0 -21 4 -18 5 3 9 14 9 24 0 10 6 21
13 23 6 3 0 6 -15 6 -26 1 -52 21 -27 21 10 0 10 3 1 12 -9 9 -9 15 1 27 9 12
9 13 0 7 -15 -8 -17 3 -4 22 4 7 14 12 22 10 8 -2 15 4 15 12 1 8 2 21 3 27 1
16 43 11 49 -5 2 -7 11 -12 20 -12 13 0 13 3 -4 16 -17 14 -17 15 -1 10 10 -3
23 -6 28 -6 4 0 4 -12 -2 -27 -6 -16 -10 -30 -9 -33 1 -2 -4 -6 -11 -9 -8 -2
-10 3 -6 18 3 13 0 21 -8 21 -8 0 -11 -8 -8 -20 3 -11 1 -20 -5 -20 -6 0 -13
8 -15 18 -3 9 -5 0 -6 -20 -1 -31 -4 -36 -21 -33 -12 2 -20 -2 -20 -10 0 -7 8
-12 18 -10 9 2 36 6 59 8 34 4 40 2 36 -10 -3 -8 -14 -13 -24 -10 -11 3 -19 1
-19 -4 0 -5 9 -9 20 -9 20 0 21 -3 24 -65 1 -11 -6 -23 -14 -27 -9 -4 -1 -7
20 -7 27 0 31 2 18 9 -13 8 -15 17 -8 40 6 22 5 28 -2 24 -8 -5 -9 -1 -4 12
13 34 15 53 5 60 -6 4 -6 11 2 20 6 8 7 14 2 14 -11 0 -11 29 0 47 9 15 -21
45 -36 36 -6 -4 -8 0 -4 9 4 11 -3 19 -21 26 -37 14 -60 12 -85 -9z m46 -3
c-4 -6 1 -5 10 3 12 9 17 10 17 2 0 -7 5 -9 11 -5 7 4 10 1 7 -6 -4 -14 -67
-20 -75 -7 -2 4 -10 5 -16 1 -7 -3 -4 1 5 9 20 16 50 19 41 3z m-71 -61 c3
-13 1 -22 -3 -19 -9 5 -13 44 -5 44 2 0 6 -11 8 -25z m148 -65 c-12 -22 -30
-27 -31 -7 0 10 -2 10 -6 0 -7 -18 -23 -16 -23 1 0 8 12 17 28 19 15 2 31 5
35 6 4 0 3 -8 -3 -19z"/>
<path d="M210 833 c0 -5 7 -17 15 -27 8 -10 12 -23 9 -27 -3 -5 -1 -9 5 -9 6
0 8 -16 5 -40 -4 -24 -2 -40 5 -40 14 0 23 17 13 24 -5 3 -7 18 -4 34 2 16 -1
33 -8 37 -8 5 -8 10 0 20 8 10 6 13 -7 11 -10 0 -17 5 -15 12 1 6 -2 12 -8 12
-5 0 -10 -3 -10 -7z"/>
<path d="M308 833 c7 -3 16 -2 19 1 4 3 -2 6 -13 5 -11 0 -14 -3 -6 -6z"/>
<path d="M348 833 c7 -3 16 -2 19 1 4 3 -2 6 -13 5 -11 0 -14 -3 -6 -6z"/>
<path d="M390 830 c15 -10 10 -13 -25 -12 -17 1 -17 0 -2 -4 15 -5 21 -16 18
-36 0 -5 3 -8 8 -8 6 0 9 8 9 18 0 9 3 25 7 35 5 13 2 17 -11 17 -16 0 -17 -2
-4 -10z"/>
<path d="M919 818 c-1 -13 -3 -38 -5 -55 -2 -25 2 -33 14 -32 10 0 12 3 6 5
-6 2 -9 25 -7 54 2 28 1 50 -2 50 -3 0 -6 -10 -6 -22z"/>
<path d="M1130 829 c0 -5 5 -7 10 -4 6 3 10 8 10 11 0 2 -4 4 -10 4 -5 0 -10
-5 -10 -11z"/>
<path d="M1250 839 c0 -4 7 -22 15 -40 8 -19 14 -27 14 -19 0 14 -28 72 -29
59z"/>
<path d="M1308 833 c7 -3 16 -2 19 1 4 3 -2 6 -13 5 -11 0 -14 -3 -6 -6z"/>
<path d="M1348 833 c6 -2 18 -2 25 0 6 3 1 5 -13 5 -14 0 -19 -2 -12 -5z"/>
<path d="M1420 835 c0 -7 30 -13 34 -7 3 4 -4 9 -15 9 -10 1 -19 0 -19 -2z"/>
<path d="M298 813 c7 -3 16 -2 19 1 4 3 -2 6 -13 5 -11 0 -14 -3 -6 -6z"/>
<path d="M482 750 c-1 -38 2 -70 6 -70 7 0 7 128 0 136 -3 2 -5 -27 -6 -66z"/>
<path d="M1288 813 c7 -3 16 -2 19 1 4 3 -2 6 -13 5 -11 0 -14 -3 -6 -6z"/>
<path d="M1418 807 c8 -9 11 -21 7 -27 -3 -5 -1 -10 5 -10 17 0 8 43 -10 48
-13 5 -13 3 -2 -11z"/>
<path d="M760 796 c0 -9 5 -16 10 -16 6 0 10 4 10 9 0 6 -4 13 -10 16 -5 3
-10 -1 -10 -9z"/>
<path d="M268 793 c6 -2 18 -2 25 0 6 3 1 5 -13 5 -14 0 -19 -2 -12 -5z"/>
<path d="M312 788 c-7 -7 -12 -31 -12 -54 0 -38 2 -41 25 -41 25 0 25 0 5 14
-29 20 -27 71 3 83 13 5 16 9 7 9 -9 1 -21 -4 -28 -11z"/>
<path d="M1296 792 c-7 -12 -10 -172 -2 -179 7 -7 9 19 6 84 -1 38 1 42 27 46
l28 4 -27 2 c-20 1 -28 6 -28 20 0 11 6 22 13 24 9 4 9 6 0 6 -6 1 -14 -3 -17
-7z"/>
<path d="M1337 779 c4 -13 8 -18 11 -10 2 7 -1 18 -6 23 -8 8 -9 4 -5 -13z"/>
<path d="M1380 796 c0 -2 7 -6 15 -10 8 -3 15 -1 15 4 0 6 -7 10 -15 10 -8 0
-15 -2 -15 -4z"/>
<path d="M603 776 c-26 -12 -29 -21 -11 -32 7 -4 8 -3 4 4 -4 7 -1 12 7 12 8
0 17 7 21 15 3 8 4 14 3 14 -1 -1 -12 -6 -24 -13z"/>
<path d="M1046 778 c3 -5 10 -6 15 -3 13 9 11 12 -6 12 -8 0 -12 -4 -9 -9z"/>
<path d="M363 725 c0 -27 2 -38 4 -22 2 15 2 37 0 50 -2 12 -4 0 -4 -28z"/>
<path d="M561 754 c0 -11 3 -14 6 -6 3 7 2 16 -1 19 -3 4 -6 -2 -5 -13z"/>
<path d="M685 764 c2 -4 0 -15 -6 -25 -7 -14 -6 -19 4 -19 14 0 17 35 4 45 -4
3 -5 2 -2 -1z"/>
<path d="M891 754 c0 -11 3 -14 6 -6 3 7 2 16 -1 19 -3 4 -6 -2 -5 -13z"/>
<path d="M1360 755 c0 -8 4 -15 10 -15 5 0 7 7 4 15 -4 8 -8 15 -10 15 -2 0
-4 -7 -4 -15z"/>
<path d="M1399 760 c-3 -48 0 -112 5 -117 3 -3 6 24 6 60 0 37 -2 67 -5 67 -3
0 -5 -4 -6 -10z"/>
<path d="M328 743 c7 -3 16 -2 19 1 4 3 -2 6 -13 5 -11 0 -14 -3 -6 -6z"/>
<path d="M630 731 c0 -5 7 -11 15 -15 8 -3 15 -1 15 3 0 5 -7 11 -15 15 -8 3
-15 1 -15 -3z"/>
<path d="M843 685 c0 -33 2 -45 4 -27 2 18 2 45 0 60 -2 15 -4 0 -4 -33z"/>
<path d="M1010 724 c0 -8 6 -11 15 -8 8 4 15 9 15 13 0 4 -7 8 -15 8 -8 0 -15
-6 -15 -13z"/>
<path d="M560 672 c0 -32 2 -61 5 -64 12 -11 55 5 55 21 0 10 -3 12 -8 5 -4
-6 -15 -13 -24 -17 -16 -6 -18 0 -18 48 0 48 3 55 19 55 11 0 22 -6 24 -12 3
-8 6 -6 6 5 1 12 -7 17 -29 17 -30 0 -30 0 -30 -58z"/>
<path d="M864 723 c10 -11 36 -12 36 -2 0 5 -10 9 -22 9 -12 0 -18 -3 -14 -7z"/>
<path d="M951 714 c0 -11 3 -14 6 -6 3 7 2 16 -1 19 -3 4 -6 -2 -5 -13z"/>
<path d="M1338 718 c-2 -7 -1 -26 3 -43 6 -27 7 -25 6 13 0 44 -2 50 -9 30z"/>
<path d="M913 644 c0 -53 -5 -79 -14 -85 -9 -5 11 -8 51 -8 36 1 57 3 48 6
-10 2 -18 13 -18 23 0 10 -7 20 -15 24 -10 4 -15 -1 -15 -14 0 -11 -5 -20 -11
-20 -7 0 -9 10 -7 25 3 13 2 22 -2 20 -4 -3 -6 20 -3 50 2 30 0 55 -4 55 -5 0
-9 -34 -10 -76z"/>
<path d="M381 694 c0 -11 3 -14 6 -6 3 7 2 16 -1 19 -3 4 -6 -2 -5 -13z"/>
<path d="M678 680 c-3 -16 -1 -30 4 -30 4 0 8 14 8 30 0 17 -2 30 -4 30 -2 0
-6 -13 -8 -30z"/>
<path d="M1363 665 c0 -27 2 -38 4 -22 2 15 2 37 0 50 -2 12 -4 0 -4 -28z"/>
<path d="M585 690 c-4 -6 1 -10 9 -10 9 0 16 -4 16 -10 0 -5 -7 -10 -15 -10
-8 0 -15 -4 -15 -9 0 -5 9 -7 20 -4 11 3 20 13 20 23 0 20 -26 34 -35 20z"/>
<path d="M643 693 c-7 -3 -13 -8 -13 -13 0 -10 24 -7 28 4 5 11 -1 14 -15 9z"/>
<path d="M878 693 c-24 -6 -23 -19 2 -19 11 0 20 6 20 13 0 7 -1 12 -2 12 -2
-1 -11 -3 -20 -6z"/>
<path d="M800 679 c0 -5 5 -7 10 -4 6 3 10 1 10 -4 0 -6 -4 -11 -10 -11 -5 0
-10 -5 -10 -11 0 -5 4 -8 9 -4 6 3 12 -12 14 -32 3 -29 4 -24 5 20 2 45 -1 57
-13 57 -8 0 -15 -5 -15 -11z"/>
<path d="M952 665 c0 -16 2 -22 5 -12 2 9 2 23 0 30 -3 6 -5 -1 -5 -18z"/>
<path d="M240 671 c0 -5 7 -12 16 -15 22 -9 114 -7 114 2 0 4 -25 5 -55 4 -35
-3 -55 0 -55 7 0 6 -4 11 -10 11 -5 0 -10 -4 -10 -9z"/>
<path d="M482 650 c0 -14 2 -19 5 -12 2 6 2 18 0 25 -3 6 -5 1 -5 -13z"/>
<path d="M1050 646 c0 -13 -5 -27 -10 -29 -6 -3 -5 -4 1 -3 16 3 31 44 19 51
-6 4 -10 -5 -10 -19z"/>
<path d="M1421 654 c0 -11 3 -14 6 -6 3 7 2 16 -1 19 -3 4 -6 -2 -5 -13z"/>
<path d="M630 643 c0 -15 2 -16 10 -3 8 12 10 11 10 -7 0 -12 5 -25 12 -29 8
-5 9 -2 5 10 -4 10 -7 24 -7 32 0 8 -7 14 -15 14 -8 0 -15 -8 -15 -17z"/>
<path d="M860 652 c0 -4 9 -8 20 -8 11 0 20 4 20 8 0 4 -9 8 -20 8 -11 0 -20
-4 -20 -8z"/>
<path d="M243 613 c0 -29 1 -33 7 -18 5 11 9 15 9 9 1 -6 17 -11 39 -10 20 1
48 -1 62 -5 24 -6 26 -4 27 25 0 17 -1 22 -4 10 -3 -17 -11 -21 -43 -21 -35 0
-38 2 -29 18 6 13 6 19 -1 19 -5 0 -10 -6 -10 -14 0 -26 -30 -27 -40 -1 -13
34 -16 32 -17 -12z"/>
<path d="M361 624 c0 -11 3 -14 6 -6 3 7 2 16 -1 19 -3 4 -6 -2 -5 -13z"/>
<path d="M680 630 c0 -5 5 -10 10 -10 6 0 10 5 10 10 0 6 -4 10 -10 10 -5 0
-10 -4 -10 -10z"/>
<path d="M1082 620 c0 -14 2 -19 5 -12 2 6 2 18 0 25 -3 6 -5 1 -5 -13z"/>
<path d="M1341 624 c0 -11 3 -14 6 -6 3 7 2 16 -1 19 -3 4 -6 -2 -5 -13z"/>
<path d="M866 617 c3 -10 9 -15 12 -12 3 3 0 11 -7 18 -10 9 -11 8 -5 -6z"/>
<path d="M1397 616 c-4 -9 -13 -13 -22 -10 -8 3 -15 2 -15 -3 0 -16 38 -12 44
4 4 9 5 18 2 20 -2 2 -6 -3 -9 -11z"/>
<path d="M483 595 c0 -15 -5 -30 -11 -34 -6 -4 -6 -10 2 -17 9 -8 15 -7 24 3
9 9 9 13 1 13 -6 0 -9 8 -6 19 2 10 1 24 -3 31 -4 7 -7 1 -7 -15z"/>
<path d="M841 604 c0 -11 3 -14 6 -6 3 7 2 16 -1 19 -3 4 -6 -2 -5 -13z"/>
<path d="M1415 601 c-3 -5 -1 -12 5 -16 5 -3 10 1 10 9 0 18 -6 21 -15 7z"/>
<path d="M1286 592 c-2 -4 11 -6 30 -4 19 2 34 6 34 8 0 8 -59 4 -64 -4z"/>
<path d="M840 565 c0 -8 4 -15 10 -15 5 0 7 7 4 15 -4 8 -8 15 -10 15 -2 0 -4
-7 -4 -15z"/>
<path d="M240 560 c0 -6 7 -10 15 -10 8 0 15 2 15 4 0 2 -7 6 -15 10 -8 3 -15
1 -15 -4z"/>
<path d="M375 560 c-3 -5 -1 -10 4 -10 6 0 11 5 11 10 0 6 -2 10 -4 10 -3 0
-8 -4 -11 -10z"/>
<path d="M815 560 c-3 -5 -1 -10 4 -10 6 0 11 5 11 10 0 6 -2 10 -4 10 -3 0
-8 -4 -11 -10z"/>
<path d="M1270 560 c0 -5 5 -10 11 -10 5 0 7 5 4 10 -3 6 -8 10 -11 10 -2 0
-4 -4 -4 -10z"/>
<path d="M1420 560 c0 -6 7 -10 15 -10 8 0 15 2 15 4 0 2 -7 6 -15 10 -8 3
-15 1 -15 -4z"/>
<path d="M108 553 c7 -3 16 -2 19 1 4 3 -2 6 -13 5 -11 0 -14 -3 -6 -6z"/>
<path d="M148 553 c6 -2 18 -2 25 0 6 3 1 5 -13 5 -14 0 -19 -2 -12 -5z"/>
<path d="M588 553 c7 -3 16 -2 19 1 4 3 -2 6 -13 5 -11 0 -14 -3 -6 -6z"/>
<path d="M1033 553 c9 -2 23 -2 30 0 6 3 -1 5 -18 5 -16 0 -22 -2 -12 -5z"/>
<path d="M1468 553 c7 -3 16 -2 19 1 4 3 -2 6 -13 5 -11 0 -14 -3 -6 -6z"/>
<path d="M1508 553 c7 -3 16 -2 19 1 4 3 -2 6 -13 5 -11 0 -14 -3 -6 -6z"/>
<path d="M1548 553 c7 -3 16 -2 19 1 4 3 -2 6 -13 5 -11 0 -14 -3 -6 -6z"/>
<path d="M457 533 c-13 -12 -7 -23 11 -22 10 0 12 3 4 6 -6 2 -10 9 -6 14 6
10 0 12 -9 2z"/>
<path d="M508 533 c7 -3 16 -2 19 1 4 3 -2 6 -13 5 -11 0 -14 -3 -6 -6z"/>
<path d="M548 533 c7 -3 16 -2 19 1 4 3 -2 6 -13 5 -11 0 -14 -3 -6 -6z"/>
<path d="M588 533 c7 -3 16 -2 19 1 4 3 -2 6 -13 5 -11 0 -14 -3 -6 -6z"/>
<path d="M628 533 c6 -2 18 -2 25 0 6 3 1 5 -13 5 -14 0 -19 -2 -12 -5z"/>
<path d="M733 533 c9 -2 23 -2 30 0 6 3 -1 5 -18 5 -16 0 -22 -2 -12 -5z"/>
<path d="M818 533 c7 -3 16 -2 19 1 4 3 -2 6 -13 5 -11 0 -14 -3 -6 -6z"/>
<path d="M878 533 c7 -3 16 -2 19 1 4 3 -2 6 -13 5 -11 0 -14 -3 -6 -6z"/>
<path d="M988 533 c7 -3 16 -2 19 1 4 3 -2 6 -13 5 -11 0 -14 -3 -6 -6z"/>
<path d="M1028 533 c7 -3 16 -2 19 1 4 3 -2 6 -13 5 -11 0 -14 -3 -6 -6z"/>
<path d="M1068 533 c7 -3 16 -2 19 1 4 3 -2 6 -13 5 -11 0 -14 -3 -6 -6z"/>
<path d="M1108 533 c7 -3 16 -2 19 1 4 3 -2 6 -13 5 -11 0 -14 -3 -6 -6z"/>
<path d="M498 513 c7 -3 16 -2 19 1 4 3 -2 6 -13 5 -11 0 -14 -3 -6 -6z"/>
<path d="M578 513 c7 -3 16 -2 19 1 4 3 -2 6 -13 5 -11 0 -14 -3 -6 -6z"/>
<path d="M708 513 c7 -3 16 -2 19 1 4 3 -2 6 -13 5 -11 0 -14 -3 -6 -6z"/>
<path d="M848 513 c7 -3 16 -2 19 1 4 3 -2 6 -13 5 -11 0 -14 -3 -6 -6z"/>
<path d="M978 513 c7 -3 16 -2 19 1 4 3 -2 6 -13 5 -11 0 -14 -3 -6 -6z"/>
<path d="M1058 513 c7 -3 16 -2 19 1 4 3 -2 6 -13 5 -11 0 -14 -3 -6 -6z"/>
<path d="M463 493 c9 -2 23 -2 30 0 6 3 -1 5 -18 5 -16 0 -22 -2 -12 -5z"/>
<path d="M543 493 c9 -2 23 -2 30 0 6 3 -1 5 -18 5 -16 0 -22 -2 -12 -5z"/>
<path d="M618 493 c7 -3 16 -2 19 1 4 3 -2 6 -13 5 -11 0 -14 -3 -6 -6z"/>
<path d="M678 493 c7 -3 16 -2 19 1 4 3 -2 6 -13 5 -11 0 -14 -3 -6 -6z"/>
<path d="M748 493 c7 -3 16 -2 19 1 4 3 -2 6 -13 5 -11 0 -14 -3 -6 -6z"/>
<path d="M818 493 c6 -2 18 -2 25 0 6 3 1 5 -13 5 -14 0 -19 -2 -12 -5z"/>
<path d="M918 493 c7 -3 16 -2 19 1 4 3 -2 6 -13 5 -11 0 -14 -3 -6 -6z"/>
<path d="M958 493 c7 -3 16 -2 19 1 4 3 -2 6 -13 5 -11 0 -14 -3 -6 -6z"/>
<path d="M1023 493 c9 -2 23 -2 30 0 6 3 -1 5 -18 5 -16 0 -22 -2 -12 -5z"/>
<path d="M1098 493 c7 -3 16 -2 19 1 4 3 -2 6 -13 5 -11 0 -14 -3 -6 -6z"/>
<path d="M1158 493 c7 -3 16 -2 19 1 4 3 -2 6 -13 5 -11 0 -14 -3 -6 -6z"/>
</g>
</svg>
